<svg width="26" height="24" viewBox="0 0 26 24" fill="none" xmlns="http://www.w3.org/2000/svg">
<path d="M9.92244 14.0734H15.1444V22.9507H9.92244V14.0734ZM18.7997 3.62952H19.8441V5.56685L18.7997 4.75223V3.62952ZM12.5334 1.18565L22.4551 8.92978V22.9507H16.1888V13.029H8.87805V22.9507H2.61173V8.92978L12.5334 1.18565ZM12.5334 0.0054958C12.4228 0.00610647 12.3159 0.0448383 12.2305 0.115156L0.220088 9.4833C0.165913 9.52582 0.120643 9.57859 0.0868631 9.6386C0.0530828 9.69862 0.0314535 9.76469 0.0232102 9.83306C0.0149669 9.90143 0.0202709 9.97076 0.0388196 10.0371C0.0573682 10.1034 0.0887982 10.1654 0.131315 10.2196C0.173832 10.2738 0.226603 10.319 0.286615 10.3528C0.346627 10.3866 0.412705 10.4082 0.481076 10.4165C0.549447 10.4247 0.618772 10.4194 0.685093 10.4009C0.751414 10.3823 0.813433 10.3509 0.867607 10.3084L1.56735 9.7444V23.4729C1.56735 23.6114 1.62236 23.7442 1.72029 23.8421C1.81822 23.94 1.95105 23.9951 2.08954 23.9951H9.31147C9.36844 24.0054 9.42682 24.0054 9.4838 23.9951H15.5778C15.6348 24.0056 15.6932 24.0056 15.7501 23.9951H22.9773C23.1158 23.9951 23.2486 23.94 23.3465 23.8421C23.4444 23.7442 23.4995 23.6114 23.4995 23.4729V9.7444L24.2253 10.3084C24.2789 10.3553 24.3416 10.3908 24.4095 10.4126C24.4774 10.4345 24.549 10.4422 24.6199 10.4352C24.6909 10.4283 24.7597 10.407 24.822 10.3725C24.8844 10.338 24.9391 10.2911 24.9826 10.2347C25.0262 10.1782 25.0578 10.1135 25.0754 10.0444C25.093 9.97532 25.0962 9.90337 25.085 9.83298C25.0737 9.76259 25.0481 9.69525 25.0099 9.63511C24.9716 9.57497 24.9214 9.52331 24.8624 9.4833L20.8885 6.38148V2.58513H17.7553V3.93761L12.8519 0.115156C12.7622 0.0417661 12.6493 0.00287068 12.5334 0.0054958Z" fill="white"/>
</svg>
