<svg width="24" height="24" viewBox="0 0 24 24" fill="none" xmlns="http://www.w3.org/2000/svg">
<path d="M6.69379 9.19149C6.38828 9.19149 6.08962 9.28133 5.83559 9.44966C5.58156 9.61799 5.38357 9.85724 5.26665 10.1372C5.14974 10.4171 5.11915 10.7251 5.17875 11.0223C5.23835 11.3194 5.38547 11.5924 5.60151 11.8066C5.81754 12.0209 6.09279 12.1668 6.39243 12.2259C6.69208 12.285 7.00267 12.2547 7.28494 12.1387C7.5672 12.0228 7.80845 11.8264 7.97819 11.5745C8.14792 11.3226 8.23852 11.0264 8.23852 10.7234C8.23852 10.3171 8.07577 9.92747 7.78608 9.64018C7.49639 9.35289 7.10348 9.19149 6.69379 9.19149ZM6.17889 7.14894H7.2087V8.22128C7.53087 8.28553 7.83709 8.4122 8.10979 8.59404L8.87701 7.83319L9.60818 8.5583L8.84096 9.31915C9.02433 9.58959 9.15206 9.89327 9.21685 10.2128H10.2982V11.234H9.21685C9.15206 11.5535 9.02433 11.8572 8.84096 12.1277L9.60818 12.8885L8.87701 13.6136L8.10979 12.8528C7.83709 13.0346 7.53087 13.1613 7.2087 13.2255V14.2979H6.17889V13.2255C5.85672 13.1613 5.5505 13.0346 5.27779 12.8528L4.51058 13.6136L3.77941 12.8885L4.54662 12.1277C4.36326 11.8572 4.23553 11.5535 4.17074 11.234H3.08943V10.2128H4.17074C4.23553 9.89327 4.36326 9.58959 4.54662 9.31915L3.77941 8.5583L4.51058 7.83319L5.27779 8.59404C5.5505 8.4122 5.85672 8.28553 6.17889 8.22128V7.14894ZM12.8727 5.10638C12.5672 5.10638 12.2685 5.19623 12.0145 5.36456C11.7605 5.53289 11.5625 5.77214 11.4456 6.05206C11.3286 6.33198 11.2981 6.64 11.3577 6.93716C11.4173 7.23432 11.5644 7.50728 11.7804 7.72153C11.9964 7.93577 12.2717 8.08167 12.5713 8.14078C12.871 8.19989 13.1816 8.16955 13.4638 8.0536C13.7461 7.93766 13.9874 7.74131 14.1571 7.48938C14.3268 7.23746 14.4174 6.94128 14.4174 6.6383C14.4174 6.23201 14.2547 5.84236 13.965 5.55507C13.6753 5.26778 13.2824 5.10638 12.8727 5.10638ZM12.3578 3.06383H13.3876V4.13617C13.7098 4.20042 14.016 4.3271 14.2887 4.50894L15.0559 3.74809L15.7871 4.47319L15.0199 5.23404C15.2032 5.50449 15.331 5.80816 15.3958 6.12766H16.4771V7.14894H15.3958C15.331 7.46843 15.2032 7.77211 15.0199 8.04255L15.7871 8.8034L15.0559 9.52851L14.2887 8.76766C14.016 8.9495 13.7098 9.07618 13.3876 9.14043V10.2128H12.3578V9.14043C12.0356 9.07618 11.7294 8.9495 11.4567 8.76766L10.6895 9.52851L9.95832 8.8034L10.7255 8.04255C10.5422 7.77211 10.4144 7.46843 10.3496 7.14894H9.26834V6.12766H10.3496C10.4144 5.80816 10.5422 5.50449 10.7255 5.23404L9.95832 4.47319L10.6895 3.74809L11.4567 4.50894C11.7294 4.3271 12.0356 4.20042 12.3578 4.13617V3.06383ZM10.2982 0C3.08943 0 -2.01327e-05 4.85106 -2.01327e-05 10.2128C-0.00297692 12.2729 0.625526 14.2852 1.80216 15.983C2.95494 17.6157 3.58314 19.5559 3.60434 21.5489V24H14.9323V21.8043L16.5286 21.9064C17.0484 21.9528 17.5722 21.8906 18.0663 21.7239C18.5603 21.5571 19.0137 21.2895 19.397 20.9382C19.7803 20.5869 20.0851 20.1599 20.2917 19.6846C20.4982 19.2093 20.602 18.6963 20.5963 18.1787V15.4213L22.656 14.4C22.7649 14.3404 22.8609 14.2599 22.9382 14.1632C23.0154 14.0665 23.0725 13.9555 23.1061 13.8366C23.1396 13.7178 23.149 13.5935 23.1336 13.4711C23.1182 13.3486 23.0784 13.2304 23.0164 13.1234L20.5963 8.98723C20.0299 4.2383 17.5069 0 10.2982 0Z" fill="white"/>
</svg>
