<svg width="24" height="24" viewBox="0 0 24 24" fill="none" xmlns="http://www.w3.org/2000/svg">
<path d="M12 2.6087C11.8616 2.6087 11.7289 2.66366 11.6311 2.76151C11.5332 2.85935 11.4783 2.99206 11.4783 3.13043V10.5235C11.173 10.6314 10.9086 10.8314 10.7218 11.0958C10.5349 11.3603 10.4346 11.6762 10.4348 12C10.4345 12.2334 10.4881 12.4637 10.5913 12.673L7.46086 15.8035C7.39198 15.8693 7.34244 15.9527 7.31761 16.0447C7.29278 16.1367 7.2936 16.2337 7.31999 16.3252C7.34359 16.4141 7.39029 16.4952 7.45534 16.5603C7.5204 16.6254 7.6015 16.6721 7.69042 16.6957C7.78196 16.722 7.87898 16.7229 7.97095 16.698C8.06293 16.6732 8.14635 16.6237 8.21216 16.5548L11.3426 13.4243C11.5484 13.5198 11.7731 13.568 12 13.5652C12.3671 13.5624 12.7214 13.4306 13.0012 13.1929C13.281 12.9553 13.4683 12.6269 13.5305 12.2651C13.5926 11.9033 13.5257 11.5312 13.3413 11.2138C13.1569 10.8964 12.8668 10.6539 12.5217 10.5287V3.13043C12.5228 3.0609 12.51 2.99184 12.484 2.92733C12.458 2.86282 12.4194 2.80415 12.3704 2.75478C12.2711 2.65903 12.1379 2.6065 12 2.6087ZM12 1.04348C14.167 1.04348 16.2853 1.68607 18.0871 2.88999C19.8889 4.0939 21.2932 5.80508 22.1225 7.80712C22.9518 9.80916 23.1687 12.0122 22.746 14.1375C22.3232 16.2629 21.2797 18.2151 19.7474 19.7474C18.2151 21.2797 16.2629 22.3232 14.1375 22.746C12.0121 23.1688 9.80915 22.9518 7.80711 22.1225C5.80507 21.2932 4.09389 19.8889 2.88998 18.0871C1.68606 16.2853 1.04347 14.167 1.04347 12C1.04347 9.09415 2.19781 6.30732 4.25256 4.25257C6.30731 2.19782 9.09414 1.04348 12 1.04348ZM12 0C9.62661 0 7.30654 0.703788 5.33315 2.02236C3.35976 3.34094 1.82169 5.21509 0.913436 7.4078C0.00518415 9.60051 -0.232456 12.0133 0.230567 14.3411C0.693589 16.6689 1.83648 18.8071 3.51471 20.4853C5.19294 22.1635 7.33113 23.3064 9.65891 23.7694C11.9867 24.2324 14.3995 23.9948 16.5922 23.0866C18.7849 22.1783 20.659 20.6402 21.9776 18.6668C23.2962 16.6935 24 14.3734 24 12C24 8.8174 22.7357 5.76516 20.4853 3.51472C18.2348 1.26428 15.1826 0 12 0Z" fill="white"/>
</svg>
