<svg width="29" height="23" viewBox="0 0 29 23" fill="none" xmlns="http://www.w3.org/2000/svg">
<path d="M1.17964 10.925H5.2296C5.2296 11.23 5.35151 11.5225 5.56851 11.7382C5.78552 11.9538 6.07984 12.075 6.38673 12.075H9.27955C9.58644 12.075 9.88076 11.9538 10.0978 11.7382C10.3148 11.5225 10.4367 11.23 10.4367 10.925H18.5366C18.5366 11.23 18.6585 11.5225 18.8755 11.7382C19.0925 11.9538 19.3868 12.075 19.6937 12.075H22.5865C22.8934 12.075 23.1878 11.9538 23.4048 11.7382C23.6218 11.5225 23.7437 11.23 23.7437 10.925H27.7936V21.275C27.7936 21.4275 27.7327 21.5738 27.6242 21.6816C27.5157 21.7894 27.3685 21.85 27.2151 21.85H1.75821C1.60476 21.85 1.4576 21.7894 1.3491 21.6816C1.2406 21.5738 1.17964 21.4275 1.17964 21.275V10.925ZM19.6937 9.775H22.5865V10.1718C22.5522 10.2823 22.5522 10.4005 22.5865 10.511V10.925H19.6937V10.4593C19.7101 10.3815 19.7101 10.3012 19.6937 10.2235V9.775ZM6.38673 9.775H9.27955V10.1718C9.24522 10.2823 9.24522 10.4005 9.27955 10.511V10.925H6.38673V10.4593C6.40311 10.3815 6.40311 10.3012 6.38673 10.2235V9.775ZM1.75821 4.6H27.2151C27.3685 4.6 27.5157 4.66058 27.6242 4.76841C27.7327 4.87625 27.7936 5.0225 27.7936 5.175V9.775H23.7437C23.7437 9.47 23.6218 9.17749 23.4048 8.96183C23.1878 8.74616 22.8934 8.625 22.5865 8.625H19.6937C19.3868 8.625 19.0925 8.74616 18.8755 8.96183C18.6585 9.17749 18.5366 9.47 18.5366 9.775H10.4367C10.4367 9.47 10.3148 9.17749 10.0978 8.96183C9.88076 8.74616 9.58644 8.625 9.27955 8.625H6.38673C6.07984 8.625 5.78552 8.74616 5.56851 8.96183C5.35151 9.17749 5.2296 9.47 5.2296 9.775H1.17964V5.175C1.17964 5.0225 1.2406 4.87625 1.3491 4.76841C1.4576 4.66058 1.60476 4.6 1.75821 4.6ZM11.0152 1.15H17.958C18.1115 1.15 18.2586 1.21058 18.3671 1.31841C18.4756 1.42625 18.5366 1.5725 18.5366 1.725V3.45H10.4367V1.725C10.4367 1.5725 10.4976 1.42625 10.6061 1.31841C10.7146 1.21058 10.8618 1.15 11.0152 1.15ZM11.0152 0C10.5549 0 10.1134 0.181741 9.78793 0.505241C9.46242 0.828741 9.27955 1.2675 9.27955 1.725V3.45H1.75821C1.29787 3.45 0.856392 3.63174 0.530886 3.95524C0.20538 4.27874 0.0225129 4.7175 0.0225129 5.175L0.0225129 10.1718C-0.0118174 10.2823 -0.0118174 10.4005 0.0225129 10.511L0.0225129 21.275C0.0225129 21.7325 0.20538 22.1713 0.530886 22.4948C0.856392 22.8183 1.29787 23 1.75821 23H27.2151C27.6754 23 28.1169 22.8183 28.4424 22.4948C28.7679 22.1713 28.9508 21.7325 28.9508 21.275V10.4593C28.9671 10.3815 28.9671 10.3012 28.9508 10.2235V5.175C28.9508 4.7175 28.7679 4.27874 28.4424 3.95524C28.1169 3.63174 27.6754 3.45 27.2151 3.45H19.6937V1.725C19.6937 1.2675 19.5109 0.828741 19.1853 0.505241C18.8598 0.181741 18.4184 0 17.958 0H11.0152Z" fill="white"/>
</svg>
